<svg width="24" height="24" viewBox="0 0 24 24" fill="none" xmlns="http://www.w3.org/2000/svg">
<path d="M23.5 7C23.776 7 24 7.224 24 7.5V8.011C24 8.804 23.074 9 22.384 9L21.298 7H23.5ZM22.059 10.506C22.698 11.692 23.005 12.758 23.005 14.172C23.005 15.542 22.608 16.705 22 18.153V20C22 20.552 21.552 21 21 21H19.5C18.948 21 18.5 20.552 18.5 20V19H5.5V20C5.5 20.552 5.052 21 4.5 21H3C2.448 21 2 20.552 2 20V18.153C1.392 16.705 0.995 15.542 0.995 14.172C0.995 12.758 1.302 11.692 1.941 10.506C2.77 8.969 3.792 7.053 4.871 5.254C5.699 3.872 6.133 3.547 7.149 3.365C8.681 3.09 10.067 3 12 3C13.933 3 15.319 3.09 16.851 3.365C17.867 3.547 18.301 3.872 19.129 5.254C20.208 7.053 21.23 8.969 22.059 10.506V10.506ZM6 13.5C6 12.672 5.328 12 4.5 12C3.672 12 3 12.672 3 13.5C3 14.328 3.672 15 4.5 15C5.328 15 6 14.328 6 13.5ZM16 14.5C16 14.224 15.776 14 15.5 14H8.5C8.224 14 8 14.224 8 14.5C8 14.776 8.224 15 8.5 15H15.5C15.776 15 16 14.776 16 14.5ZM18.941 8.973C18.941 8.973 18.201 7.147 17.31 5.831C17.108 5.533 16.795 5.329 16.441 5.265C14.93 4.993 13.606 4.906 12 4.906C10.394 4.906 9.07 4.993 7.559 5.265C7.205 5.328 6.892 5.532 6.69 5.831C5.799 7.146 5.059 8.973 5.059 8.973C6.699 9.286 9.368 9.47 12 9.47C14.632 9.47 17.301 9.286 18.941 8.973ZM21 13.5C21 12.672 20.328 12 19.5 12C18.672 12 18 12.672 18 13.5C18 14.328 18.672 15 19.5 15C20.328 15 21 14.328 21 13.5ZM2.702 7H0.5C0.224 7 0 7.224 0 7.5V8.011C0 8.804 0.926 9 1.616 9L2.702 7Z" fill="white"/>
</svg>
