<svg width="17" height="19" viewBox="0 0 17 19" fill="none" xmlns="http://www.w3.org/2000/svg">
<path d="M12.5791 4.71289C13.6837 4.71289 14.5791 3.81746 14.5791 2.71289C14.5791 1.60832 13.6837 0.712891 12.5791 0.712891C11.4745 0.712891 10.5791 1.60832 10.5791 2.71289C10.5791 3.81746 11.4745 4.71289 12.5791 4.71289Z" fill="white"/>
<path d="M15.9959 5.2394C16.7729 5.8144 16.937 6.9104 16.362 7.6874L12.4979 12.9144C11.9239 13.6914 10.8279 13.8544 10.0509 13.2804C9.27392 12.7054 9.10986 11.6094 9.68386 10.8324L13.5488 5.60543C14.1228 4.82843 15.2189 4.6654 15.9959 5.2394Z" fill="white"/>
<path d="M5.76403 11.5105C6.54103 12.0855 6.70499 13.1815 6.12999 13.9585L3.45495 17.5765C2.87995 18.3535 1.78395 18.5175 1.00695 17.9425C0.229947 17.3685 0.0659803 16.2725 0.64098 15.4955L3.31701 11.8775C3.89101 11.1005 4.98603 10.9365 5.76403 11.5105Z" fill="white"/>
<path d="M3.31603 11.8775C3.89003 11.1005 4.98593 10.9365 5.76293 11.5105L9.38097 14.1865C10.158 14.7615 10.3219 15.8565 9.74694 16.6335C9.17294 17.4105 8.07704 17.5745 7.30004 17.0005L3.682 14.3245C2.905 13.7495 2.74103 12.6545 3.31603 11.8775Z" fill="white"/>
</svg>
